<?xml version="1.0" standalone="no"?>
<!DOCTYPE svg PUBLIC "-//W3C//DTD SVG 20010904//EN"
 "http://www.w3.org/TR/2001/REC-SVG-20010904/DTD/svg10.dtd">
<svg version="1.0" xmlns="http://www.w3.org/2000/svg"
 width="1024.000000pt" height="1024.000000pt" viewBox="0 0 1024.000000 1024.000000"
 preserveAspectRatio="xMidYMid meet">

<g transform="translate(0.000000,1024.000000) scale(0.100000,-0.100000)"
fill="#000000" stroke="none">
<path d="M4959 8627 c-104 -29 -190 -104 -238 -206 -22 -48 -26 -70 -26 -147
0 -86 2 -94 43 -176 l42 -86 -68 -119 c-37 -65 -121 -208 -187 -318 -65 -110
-165 -281 -223 -380 -58 -99 -136 -233 -174 -297 l-69 -118 -724 0 -724 0 -36
61 c-44 72 -114 130 -192 159 -83 31 -206 25 -281 -14 -71 -36 -132 -99 -168
-172 -26 -53 -29 -69 -29 -159 0 -90 3 -105 28 -153 40 -76 97 -134 169 -173
58 -30 70 -33 153 -34 50 0 99 3 111 8 26 9 56 -41 571 -958 74 -132 153 -271
176 -310 22 -38 40 -75 40 -81 0 -12 -157 -293 -338 -604 -57 -96 -152 -263
-212 -370 -61 -107 -131 -229 -156 -270 l-46 -75 -108 0 c-106 0 -111 -1 -185
-38 -86 -42 -133 -89 -176 -177 -24 -48 -27 -67 -27 -150 0 -87 3 -100 32
-155 42 -81 104 -141 183 -179 56 -26 76 -31 145 -31 65 1 90 5 137 27 75 35
138 94 177 168 l32 60 728 0 c681 0 729 -1 743 -17 9 -10 137 -223 286 -473
149 -250 302 -507 340 -570 l70 -115 -20 -33 c-54 -88 -62 -115 -63 -207 0
-77 4 -98 27 -147 133 -283 523 -289 661 -9 29 59 32 74 32 156 0 85 -3 96
-37 167 l-38 76 30 48 c17 27 75 123 129 214 53 91 133 224 175 295 141 235
292 489 328 550 l34 60 732 3 732 2 20 -44 c47 -99 139 -173 249 -202 245 -62
481 161 440 417 -20 126 -81 209 -192 264 -85 41 -171 54 -244 36 -45 -12 -49
-11 -63 9 -35 52 -686 1193 -734 1288 l-17 33 97 172 c80 141 385 674 616
1077 l49 85 112 0 c103 0 117 2 171 29 103 50 172 138 202 258 41 159 -47 332
-204 406 -50 24 -69 27 -157 27 -89 0 -106 -3 -151 -27 -64 -34 -132 -101
-164 -162 l-25 -46 -715 0 c-393 0 -720 4 -726 8 -13 8 -92 139 -287 472 -69
118 -195 334 -281 479 -86 146 -156 269 -156 274 0 5 17 43 38 85 35 73 37 80
37 176 0 122 -18 168 -95 250 -90 96 -238 138 -361 103z m302 -980 c39 -67
130 -221 202 -342 398 -673 371 -625 369 -655 -3 -40 -15 -42 -88 -9 -38 18
-105 44 -149 58 l-80 26 -3 144 c-2 132 -4 145 -26 175 -13 17 -43 66 -66 109
-33 60 -47 77 -64 77 -44 0 -46 -12 -46 -242 l0 -218 -47 6 c-27 3 -58 7 -70
10 l-23 4 0 496 c0 326 3 493 10 489 5 -3 42 -61 81 -128z m-311 -366 c0 -270
-3 -492 -7 -494 -5 -3 -37 -6 -73 -8 l-65 -4 -1 218 c0 141 -4 221 -11 228 -6
6 -21 9 -34 7 -18 -2 -34 -22 -67 -83 -23 -44 -51 -92 -62 -107 -15 -20 -20
-43 -20 -90 0 -35 -3 -100 -7 -145 l-6 -82 -61 -20 c-34 -11 -99 -36 -145 -55
-45 -20 -86 -34 -91 -31 -4 3 -11 17 -14 31 -8 29 3 47 391 697 241 404 255
427 266 427 4 0 7 -220 7 -489z m285 -741 c167 -20 322 -67 500 -155 426 -208
702 -539 829 -990 48 -172 51 -200 51 -435 -1 -243 -13 -328 -71 -506 -151
-463 -528 -845 -990 -1003 -158 -54 -272 -73 -459 -78 -187 -6 -284 6 -447 53
-363 104 -636 296 -854 599 -127 177 -242 447 -280 657 -26 144 -24 421 4 566
101 508 403 912 847 1132 286 142 570 194 870 160z m-1147 -21 c2 -10 -23 -33
-70 -65 l-73 -49 -327 -5 c-288 -4 -329 -7 -344 -22 -31 -31 -11 -62 68 -103
90 -47 288 -164 288 -171 0 -5 -41 -64 -61 -88 -9 -10 -26 0 -726 432 -67 41
-120 79 -117 84 3 4 310 7 682 6 607 -3 677 -5 680 -19z m3332 13 c0 -4 -87
-59 -192 -122 -106 -62 -297 -178 -424 -257 -127 -79 -236 -143 -242 -143 -11
0 -72 82 -72 97 0 11 166 108 268 158 39 19 76 44 82 55 15 28 3 59 -27 71
-13 5 -160 9 -326 9 l-302 0 -83 56 c-67 45 -80 59 -71 70 10 12 125 14 700
14 379 0 689 -4 689 -8z m-4620 -318 c41 -25 143 -87 225 -136 83 -49 212
-129 287 -176 151 -95 144 -84 107 -168 l-20 -44 -57 29 c-32 16 -71 47 -90
70 -40 50 -82 56 -108 16 -14 -21 -14 -30 -5 -54 17 -40 101 -155 155 -211
l45 -47 -19 -61 c-10 -34 -21 -84 -25 -112 -4 -27 -10 -52 -14 -55 -4 -2 -32
40 -63 93 -128 227 -412 718 -442 765 -55 85 -78 137 -63 137 7 0 46 -21 87
-46z m4579 -21 c-57 -100 -328 -573 -404 -703 -40 -69 -85 -149 -99 -177 -14
-29 -30 -53 -34 -53 -5 0 -20 53 -34 118 l-26 117 42 45 c75 81 156 207 156
241 0 20 -32 49 -53 49 -11 0 -42 -21 -69 -46 -42 -39 -134 -92 -143 -82 -10
12 -45 90 -45 101 0 8 143 101 328 212 180 109 341 206 357 216 53 33 59 23
24 -38z m-4074 -1674 l17 -97 -74 -97 c-128 -170 -124 -163 -107 -193 22 -39
48 -37 107 8 30 22 75 51 102 64 l48 24 21 -55 c12 -31 20 -57 18 -59 -1 -2
-106 -67 -232 -145 -127 -78 -286 -177 -355 -220 -69 -42 -126 -74 -128 -69
-3 8 116 217 368 650 56 96 121 208 143 247 48 83 47 84 72 -58z m3581 49 c26
-46 102 -175 168 -288 66 -113 155 -267 198 -343 44 -76 97 -165 118 -199 21
-34 38 -64 36 -66 -4 -4 -140 78 -281 170 -55 35 -179 111 -275 168 -96 56
-176 104 -177 105 -5 3 43 115 49 115 14 0 112 -63 143 -90 43 -40 70 -45 94
-21 12 12 21 27 21 34 0 17 -63 112 -135 202 -40 50 -54 76 -50 90 3 11 13 62
22 113 10 50 19 92 19 92 1 0 24 -37 50 -82z m-3281 -714 c10 -19 16 -36 14
-38 -10 -9 -220 -126 -269 -151 -70 -35 -90 -53 -90 -80 0 -44 8 -45 329 -45
l305 0 98 -67 c66 -45 94 -69 86 -75 -16 -9 -1265 -9 -1326 0 l-43 7 287 180
c158 99 348 217 423 262 152 93 140 92 186 7z m3106 -18 c85 -51 202 -124 261
-162 59 -38 149 -94 200 -125 51 -31 129 -78 173 -105 l80 -49 -694 -3 c-382
-1 -698 1 -703 6 -4 4 35 38 87 75 l94 67 321 0 320 0 12 25 c15 33 -5 55 -92
102 -192 105 -280 155 -280 161 0 6 61 102 65 102 2 0 72 -42 156 -94z m-2218
-609 l107 -41 0 -102 c0 -57 4 -105 9 -108 5 -4 31 -43 56 -89 26 -45 54 -90
63 -99 18 -21 57 -24 69 -5 4 6 6 90 4 185 l-3 172 60 0 c102 0 92 49 92 -471
-1 -253 -4 -459 -8 -459 -10 0 -59 80 -367 594 -151 252 -275 464 -275 471 0
22 12 24 49 8 20 -8 84 -34 144 -56z m1317 41 c0 -28 -621 -1061 -632 -1050
-4 4 -7 213 -6 463 l3 454 68 5 67 5 0 -172 c0 -160 2 -175 20 -193 11 -11 24
-20 28 -20 13 0 48 41 67 80 10 19 34 59 53 88 32 48 35 57 34 125 -1 39 2 87
6 106 7 32 12 36 87 61 44 15 105 39 135 52 60 28 70 27 70 -4z"/>
<path d="M4870 6313 c-278 -43 -557 -180 -743 -366 -255 -255 -397 -571 -414
-917 -27 -559 269 -1067 762 -1305 201 -97 347 -130 580 -130 243 1 400 37
610 140 381 188 642 541 721 975 23 129 23 363 0 490 -91 501 -423 883 -916
1055 -146 50 -245 65 -424 64 -83 -1 -162 -3 -176 -6z m370 -239 c179 -34 339
-108 495 -229 218 -169 356 -396 416 -680 7 -34 13 -128 13 -215 0 -124 -4
-172 -22 -241 -104 -422 -389 -728 -784 -843 -504 -146 -1053 101 -1288 579
-220 448 -132 976 222 1326 154 153 345 257 558 303 89 19 289 20 390 0z"/>
<path d="M4993 5860 c-18 -10 -39 -29 -47 -42 -8 -13 -47 -122 -86 -243 -40
-121 -78 -230 -86 -242 -14 -23 -17 -23 -250 -23 -259 0 -280 -4 -327 -59 -22
-27 -27 -42 -27 -88 0 -69 8 -77 227 -231 89 -63 173 -126 187 -141 l25 -27
-79 -229 c-44 -127 -80 -243 -80 -258 0 -66 58 -127 122 -127 51 0 50 0 268
155 102 73 194 135 205 138 11 4 29 1 40 -6 25 -15 280 -196 350 -249 41 -31
58 -38 97 -38 39 0 54 6 83 31 67 60 67 75 -19 328 -42 123 -76 234 -76 246 0
30 42 66 230 200 185 130 204 152 197 228 -3 40 -11 56 -41 85 l-36 37 -259 3
c-196 2 -262 6 -270 16 -6 7 -44 116 -85 243 -40 126 -80 240 -87 252 -18 28
-79 61 -116 61 -15 0 -42 -9 -60 -20z"/>
</g>
</svg>
