<?xml version="1.0" standalone="no"?>
<!DOCTYPE svg PUBLIC "-//W3C//DTD SVG 20010904//EN"
 "http://www.w3.org/TR/2001/REC-SVG-20010904/DTD/svg10.dtd">
<svg version="1.0" xmlns="http://www.w3.org/2000/svg"
 width="1024.000000pt" height="1024.000000pt" viewBox="0 0 1024.000000 1024.000000"
 preserveAspectRatio="xMidYMid meet">

<g transform="translate(0.000000,1024.000000) scale(0.100000,-0.100000)"
fill="#000000" stroke="none">
<path d="M4777 8755 c-882 -106 -1589 -439 -2177 -1025 -412 -410 -686 -838
-890 -1386 -235 -631 -271 -1381 -99 -2079 98 -396 275 -777 546 -1172 490
-715 1253 -1246 2088 -1452 306 -75 495 -96 885 -96 390 0 587 21 880 95 793
198 1499 665 1992 1316 399 528 621 1045 719 1679 27 177 38 637 20 833 -88
938 -555 1824 -1294 2459 -309 265 -700 491 -1097 633 -215 77 -519 149 -785
186 -166 23 -628 28 -788 9z m613 -635 c594 -45 1123 -254 1590 -627 117 -94
327 -299 422 -413 300 -359 546 -864 644 -1320 38 -179 46 -261 51 -513 8
-399 -27 -656 -134 -992 -147 -458 -362 -828 -714 -1229 -4 -5 -43 22 -86 59
-149 128 -379 261 -658 380 -216 92 -567 199 -585 178 -4 -4 -33 -80 -65 -168
-99 -275 -355 -882 -362 -858 -1 4 -38 168 -83 363 -50 221 -87 364 -99 380
-18 25 -21 25 -172 28 -85 1 -164 0 -177 -3 -30 -7 -34 -19 -102 -320 -33
-143 -70 -303 -83 -355 l-24 -95 -43 90 c-65 138 -230 540 -299 730 -89 242
-75 218 -119 210 -20 -3 -100 -24 -177 -47 -376 -107 -830 -336 -1027 -517
-36 -33 -68 -61 -71 -61 -3 0 -45 46 -94 103 -649 752 -911 1759 -699 2692 82
366 258 754 488 1078 360 508 882 894 1468 1087 378 125 786 172 1210 140z"/>
<path d="M5105 7510 c-228 -33 -473 -122 -654 -237 -51 -33 -56 -34 -97 -24
-273 69 -591 -174 -727 -554 -81 -229 -82 -569 -1 -929 24 -108 24 -110 5
-141 -10 -17 -28 -58 -41 -91 -31 -82 -40 -271 -16 -364 34 -134 127 -287 220
-364 50 -40 172 -108 229 -126 28 -9 38 -18 43 -38 43 -198 71 -271 147 -385
172 -258 466 -459 752 -512 126 -24 289 -16 410 20 380 112 700 418 785 750
11 43 20 91 20 106 0 29 23 59 45 59 7 0 53 20 101 44 139 70 233 165 307 313
87 172 89 410 4 567 l-33 61 17 73 c72 305 62 593 -31 857 -162 458 -558 804
-1031 901 -87 18 -368 27 -454 14z m815 -735 c26 -350 94 -575 225 -739 l55
-70 0 -143 c0 -139 -1 -143 -19 -133 -38 20 -193 175 -236 235 -92 128 -167
326 -190 497 l-6 48 -86 -75 c-208 -182 -439 -289 -708 -330 -128 -19 -387
-19 -530 0 -60 8 -112 15 -116 15 -3 0 -13 -24 -24 -52 -47 -134 -205 -397
-213 -355 -9 46 39 640 52 654 1 2 62 -6 135 -17 520 -76 852 -29 1153 165
136 88 260 203 427 393 35 40 65 71 66 70 2 -2 8 -75 15 -163z"/>
</g>
</svg>
