<?xml version="1.0" standalone="no"?>
<!DOCTYPE svg PUBLIC "-//W3C//DTD SVG 20010904//EN"
 "http://www.w3.org/TR/2001/REC-SVG-20010904/DTD/svg10.dtd">
<svg version="1.0" xmlns="http://www.w3.org/2000/svg"
 width="398.000000pt" height="398.000000pt" viewBox="0 0 398.000000 398.000000"
 preserveAspectRatio="xMidYMid meet">

<g transform="translate(0.000000,303.000000) scale(0.100000,-0.100000)"
fill="#000000" stroke="none">
<path d="M1935 2224 c-228 -30 -352 -74 -490 -176 -292 -215 -439 -570 -380
-918 35 -210 112 -364 255 -510 195 -199 409 -291 679 -290 200 1 355 47 516
155 195 129 338 326 396 545 31 116 34 357 5 470 -80 313 -310 569 -603 671
-111 38 -293 64 -378 53z m271 -114 c305 -78 546 -321 621 -627 22 -92 23
-312 0 -411 -91 -404 -513 -705 -916 -653 -366 47 -660 303 -742 646 -29 123
-29 307 0 421 37 144 96 255 200 373 101 117 254 209 411 250 107 28 317 29
426 1z"/>
<path d="M1816 1950 c-38 -12 -73 -46 -85 -84 -6 -17 -12 -69 -13 -115 l-3
-85 60 -19 c86 -29 351 -30 443 -3 34 10 64 22 66 25 5 10 -13 163 -24 203 -7
24 -22 43 -44 57 -52 33 -85 35 -154 11 l-62 -22 -62 21 c-67 23 -78 24 -122
11z m137 -91 c41 -11 55 -11 108 3 67 18 101 12 117 -19 15 -29 23 -91 13 -97
-10 -7 -21 16 -21 44 0 10 -8 28 -19 41 -18 22 -20 22 -88 10 -58 -10 -80 -10
-131 2 -76 18 -99 6 -108 -53 -7 -45 -24 -44 -24 1 0 21 10 40 30 61 32 32 34
32 123 7z"/>
<path d="M1417 1682 c-31 -34 -32 -77 -3 -136 32 -66 70 -100 151 -136 79 -35
158 -56 280 -75 125 -19 185 -19 308 0 171 26 300 73 372 137 100 87 100 228
-1 228 -57 0 -90 -24 -134 -99 -52 -90 -91 -128 -166 -163 -88 -41 -201 -55
-311 -39 -153 21 -234 73 -303 192 -22 37 -53 77 -69 88 -37 27 -102 28 -124
3z"/>
<path d="M1697 1598 c-8 -61 -9 -59 88 -90 59 -19 92 -22 215 -22 127 0 154 3
220 25 l75 25 -3 54 c-2 30 -4 55 -5 56 -1 1 -36 -7 -77 -18 -107 -29 -314
-28 -424 1 -44 12 -80 21 -81 21 -1 0 -5 -23 -8 -52z"/>
<path d="M1982 1221 c-10 -27 -16 -31 -47 -31 l-37 0 31 -26 c27 -22 29 -28
19 -50 -14 -31 -4 -42 20 -21 24 22 34 21 65 -3 l25 -20 -11 36 c-10 34 -9 37
18 58 l30 21 -40 5 c-30 4 -41 10 -43 25 -7 35 -19 37 -30 6z"/>
<path d="M1200 1220 c0 -19 7 -20 255 -20 248 0 255 1 255 20 0 19 -7 20 -255
20 -248 0 -255 -1 -255 -20z"/>
<path d="M2280 1220 c0 -19 7 -20 254 -20 245 0 254 1 259 20 5 20 0 20 -254
20 -252 0 -259 -1 -259 -20z"/>
<path d="M1221 1121 c-8 -5 -11 -16 -8 -25 6 -14 36 -16 252 -16 238 0 245 1
245 20 0 11 -1 20 -2 21 -19 6 -477 6 -487 0z"/>
<path d="M2327 1121 c-26 -3 -47 -9 -47 -13 0 -5 0 -12 0 -18 0 -6 90 -10 251
-10 l250 0 -3 23 c-3 22 -4 22 -203 23 -110 1 -221 -2 -248 -5z"/>
<path d="M1252 945 l22 -45 248 0 248 0 10 26 c6 14 10 34 10 45 0 18 -10 19
-280 19 l-280 0 22 -45z"/>
<path d="M2200 971 c0 -11 4 -31 10 -45 l10 -26 250 0 250 0 20 40 c11 21 20
42 20 45 0 3 -126 5 -280 5 -270 0 -280 -1 -280 -19z"/>
<path d="M2093 937 c-28 -13 -28 -13 2 -79 30 -64 31 -102 5 -145 -66 -109
-221 -64 -220 64 0 21 9 58 20 82 24 52 25 67 4 75 -29 11 -44 6 -44 -14 0
-11 -10 -39 -22 -62 -39 -75 -25 -170 34 -225 30 -29 89 -53 128 -53 36 0 96
23 123 48 60 54 74 157 32 231 -14 23 -25 51 -25 61 0 25 -10 30 -37 17z m-83
-315 c0 -13 -12 -22 -22 -16 -10 6 -1 24 13 24 5 0 9 -4 9 -8z"/>
<path d="M1329 813 c32 -55 25 -53 230 -53 l191 0 0 35 0 35 -215 0 c-203 0
-215 -1 -206 -17z"/>
<path d="M2244 808 c3 -13 6 -29 6 -35 0 -10 44 -13 188 -13 l187 0 28 35 28
35 -222 0 -221 0 6 -22z"/>
<path d="M1440 686 c0 -2 21 -20 47 -40 l46 -36 128 0 128 0 -17 40 -17 40
-157 0 c-87 0 -158 -2 -158 -4z"/>
<path d="M2222 650 l-19 -40 131 0 131 0 45 40 45 39 -156 1 -157 0 -20 -40z"/>
<path d="M1675 526 c182 -83 458 -83 640 0 l50 23 -111 0 c-83 1 -121 -3 -150
-16 -53 -22 -168 -22 -211 0 -25 13 -58 17 -150 16 l-118 0 50 -23z"/>
<path d="M1167 2103 c-4 -3 -7 -70 -7 -147 0 -135 1 -139 17 -116 9 14 29 40
45 58 22 25 28 43 28 77 l0 45 39 0 c36 0 75 23 136 81 5 5 -43 9 -121 9 -72
0 -134 -3 -137 -7z"/>
<path d="M2615 2065 c42 -38 56 -45 92 -45 l43 0 0 -45 c0 -36 7 -55 38 -97
l37 -52 3 129 c1 71 0 135 -2 142 -4 10 -37 13 -133 13 l-128 -1 50 -44z"/>
<path d="M1160 592 l0 -142 133 0 132 1 -45 39 c-37 32 -53 39 -87 40 l-43 0
0 45 c0 34 -6 52 -28 77 -16 18 -36 44 -45 58 -16 23 -17 19 -17 -118z"/>
<path d="M2787 671 c-30 -40 -37 -56 -37 -95 l0 -46 -47 0 c-41 -1 -54 -6 -93
-40 l-45 -40 133 0 132 0 0 135 c0 74 -1 135 -3 135 -2 0 -20 -22 -40 -49z"/>
</g>
</svg>
